<svg width="29" height="28" viewBox="0 0 29 28" fill="none" xmlns="http://www.w3.org/2000/svg">
<path d="M6.33342 2.33325H11.0001V4.66659H8.66675V6.99992H6.33342V2.33325Z" fill="black"/>
<path d="M6.33342 13.9999H4.00008V6.99992H6.33342V13.9999Z" fill="black"/>
<path d="M8.66675 16.3333H6.33342V13.9999H8.66675V16.3333Z" fill="black"/>
<path fill-rule="evenodd" clip-rule="evenodd" d="M11.0001 18.6666V16.3333H8.66675V18.6666H4.00008V16.3333H1.66675V18.6666H4.00008V20.9999H8.66675V25.6666H11.0001V20.9999H13.3334V18.6666H11.0001ZM11.0001 18.6666V20.9999H8.66675V18.6666H11.0001Z" fill="black"/>
<path d="M18.0001 4.66659V6.99992H11.0001V4.66659H18.0001Z" fill="black"/>
<path d="M22.6667 6.99992H20.3334V4.66659H18.0001V2.33325H22.6667V6.99992Z" fill="black"/>
<path d="M22.6667 13.9999V6.99992H25.0001V13.9999H22.6667Z" fill="black"/>
<path d="M20.3334 16.3333V13.9999H22.6667V16.3333H20.3334Z" fill="black"/>
<path d="M18.0001 18.6666V16.3333H20.3334V18.6666H18.0001Z" fill="black"/>
<path d="M18.0001 20.9999H15.6667V18.6666H18.0001V20.9999Z" fill="black"/>
<path d="M18.0001 20.9999H20.3334V25.6666H18.0001V20.9999Z" fill="black"/>
</svg>
